Coordinates
version=1
nRows=8
nColumns=40
inDegrees=yes

Units are S.I. units (second, meters, Newtons, ...)
Angles are in degrees.

endheader
time	pelvis_tilt	pelvis_list	pelvis_rotation	pelvis_tx	pelvis_ty	pelvis_tz	hip_flexion_r	hip_adduction_r	hip_rotation_r	knee_angle_r	knee_angle_r_beta	ankle_angle_r	subtalar_angle_r	mtp_angle_r	hip_flexion_l	hip_adduction_l	hip_rotation_l	knee_angle_l	knee_angle_l_beta	ankle_angle_l	subtalar_angle_l	mtp_angle_l	lumbar_extension	lumbar_bending	lumbar_rotation	arm_flex_r	arm_add_r	arm_rot_r	elbow_flex_r	pro_sup_r	wrist_flex_r	wrist_dev_r	arm_flex_l	arm_add_l	arm_rot_l	elbow_flex_l	pro_sup_l	wrist_flex_l	wrist_dev_l
     47.78250000	     -2.89425456	     -4.72085162	     -0.51777241	      0.81098903	      0.92043152	      0.47539996	     22.02054982	      1.00501447	    -11.77878056	     23.13554718	     23.13554718	      6.09306613	     -5.85066022	     -4.26025937	      0.03970810	     -9.02244284	     -8.63539193	     29.76056000	     29.76056000	     18.62831806	     -7.03276212	     -6.97017828	     -8.82809785	      6.59006292	     -1.13226492	     -4.19504690	    -14.13785617	     -8.97288033	     33.34871692	     46.30080352	      0.00000000	      0.00000000	      5.39520273	    -16.01690028	     -8.35619464	     58.94061398	     46.89619782	      0.00000000	      0.00000000
     47.79571429	     -2.65586207	     -4.94251406	     -0.17089458	      0.81247660	      0.92135696	      0.47796609	     21.10802522	      1.37935777	    -11.99894025	     23.01676321	     23.01676321	      6.65202663	     -5.88956416	     -4.45308633	      1.36474426	     -9.83723973	     -7.81790211	     33.38258542	     33.38258542	     17.12845844	     -8.33941838	     -7.99134412	     -8.96073186	      6.86327010	     -0.93674897	     -2.84488678	    -14.28646067	     -8.92624917	     34.09122782	     46.27509036	      0.00000000	      0.00000000	      4.41471829	    -15.38342627	     -7.92519892	     57.67972401	     46.83887073	      0.00000000	      0.00000000
     47.80892857	     -2.55094471	     -5.04793628	      0.14211334	      0.81373228	      0.92204108	      0.48046535	     20.37109286	      1.63648935	    -12.18900293	     22.89885563	     22.89885563	      7.03973494	     -6.01384164	     -4.84062190	      2.82643666	    -10.38410505	     -6.73992214	     36.62739724	     36.62739724	     13.11605578	    -11.47686551	    -13.55224572	     -8.87128588	      7.04054382	     -0.49638720	     -1.94053464	    -14.65861368	     -7.98740701	     35.82610860	     46.13131972	      0.00000000	      0.00000000	      4.38189378	    -14.73137684	     -6.80011152	     53.75705089	     46.71360612	      0.00000000	      0.00000000
     47.82214286	     -2.27127227	     -5.26806518	      0.41255502	      0.81481869	      0.92276861	      0.48308786	     19.47784443	      2.01274196	    -12.47408354	     22.83065403	     22.83065403	      7.52001362	     -5.92148724	     -4.99636139	      4.49381014	    -11.19783192	     -5.93149097	     40.74127218	     40.74127218	     11.30271297	    -12.56701244	    -13.73881854	     -9.12415595	      7.27430175	     -0.17581231	     -0.34538643	    -14.82845435	     -8.03683599	     36.65657892	     46.11119128	      0.00000000	      0.00000000	      3.29278147	    -14.18305103	     -6.43867688	     52.98147102	     46.66429420	      0.00000000	      0.00000000
     47.83535714	     -2.29650875	     -5.36565331	      0.76378158	      0.81560111	      0.92299462	      0.48534355	     18.94687176	      2.18869665	    -12.86232532	     22.79199839	     22.79199839	      7.97641497	     -5.69635997	     -5.06399524	      6.67199004	    -11.66585924	     -4.69157804	     44.85868291	     44.85868291	      8.99497150	    -14.35833054	    -13.89274634	     -8.93051716	      7.42354451	     -0.25887551	      0.87590658	    -15.10823537	     -7.32860023	     38.60729803	     45.98507733	      0.00000000	      0.00000000	      2.37015422	    -13.81025934	     -5.40339648	     50.36314005	     46.54684507	      0.00000000	      0.00000000
     47.84857143	     -2.13628163	     -5.58853065	      1.06985436	      0.81623361	      0.92334086	      0.48766154	     18.19655705	      2.53864583	    -13.22280131	     22.67885194	     22.67885194	      8.37880187	     -5.55065497	     -5.15640451	      8.71156113	    -12.30257485	     -3.64104655	     48.92555874	     48.92555874	      7.04984173	    -15.30232199	    -13.38876784	     -9.03365850	      7.66362975	      0.03403865	      2.51831982	    -15.30266966	     -7.36278136	     39.51901936	     45.96111115	      0.00000000	      0.00000000	      1.22146881	    -13.26396253	     -5.03993841	     49.41736790	     46.49359340	      0.00000000	      0.00000000
     47.86178571	     -2.09388248	     -5.63619486	      1.35602707	      0.81650652	      0.92354663	      0.48963857	     17.67458346	      2.61569105	    -13.69204444	     22.75198426	     22.75198426	      8.91619895	     -5.02560277	     -4.90558782	     11.07037318	    -12.49851111	     -2.36081862	     53.13210088	     53.13210088	      6.73773686	    -15.45048510	     -8.52903300	     -9.04156658	      7.74408367	      0.26281585	      3.92850708	    -15.69277574	     -6.40537191	     41.59777372	     45.82674748	      0.00000000	      0.00000000	      0.62937370	    -12.79029337	     -4.10478331	     46.67063289	     46.38184016	      0.00000000	      0.00000000
     47.87500000	     -1.97265878	     -5.76323178	      1.63489264	      0.81665454	      0.92378022	      0.49155665	     17.05965711	      2.79273009	    -14.14282455	     22.77884912	     22.77884912	      9.42290783	     -4.58594525	     -4.69371718	     13.28210237	    -12.77986367	     -1.26606155	     56.87473595	     56.87473595	      6.28623796	    -15.51440188	     -4.56794525	     -9.16760378	      7.90019109	      0.50737409	      5.51955280	    -16.04670844	     -5.89504890	     43.20595157	     45.74232069	      0.00000000	      0.00000000	     -0.30938071	    -12.33696312	     -3.48556699	     45.02227494	     46.30328988	      0.00000000	      0.00000000
